<svg xmlns="http://www.w3.org/2000/svg" viewBox="0 0 647.26 334.77"><defs><style>.cls-1{fill:#76cbc8;}</style></defs><g id="Layer_2" data-name="Layer 2"><g id="Layer_1-2" data-name="Layer 1"><path class="cls-1" d="M592.54,63.07c-4.3,0-8,.33-11.5-.2-1-.16-2.45-2.73-2.47-4.21-.21-12.66-.38-25.34,0-38,.15-5.19-1.55-6.41-6.51-6.4q-154,.16-308,.06-122.25,0-244.49-.08c-4.65,0-5.64,1.61-5.6,5.73.13,15.5,0,31,0,46.51Q14,189.24,14,312c0,1.17.1,2.34,0,3.5-.35,3.75,1,5.67,5.07,5.28,2.31-.21,4.66,0,7,0q271.74,0,543.48,0c9.67,0,8.8,1.11,8.85-8.86.06-11.5.19-23,0-34.5-.09-4.16,1.36-5.81,5.39-5.53,1.66.12,3.33,0,5,0,2.71,0,3.84,1.29,3.84,4,0,18.17,0,36.34.12,54.51,0,4.72-3,4.3-6.07,4.3q-50,0-100,.08-238.23,0-476.47-.14c-11.78,0-10,1.63-10-10q0-158.52,0-317C.13,0,.14.06,7.75.06q153,0,306-.06Q449.48,0,585.22.19c7.36,0,7.33,0,7.32,7.36q0,24.25,0,48.51Z"/><path class="cls-1" d="M349.34,128c-2.18,4.51-4.47,9-6.54,13.53Q322,187.45,301.33,233.41c-1.33,3-3.14,4.47-6.5,4.15-2.14-.21-4.51.5-6.44-.16-2.24-.77-5.12-2.14-6-4C270,206.28,257.87,179,245.61,151.88c-3.59-7.94-7.45-15.75-11.18-23.63l-1.3.2c-.1,2-.29,4.08-.29,6.12q-.06,48-.09,96c0,6.83,0,6.83-6.88,6.9-1,0-2-.07-3,0-3.8.36-5.21-1.13-5.15-5.12.21-13.67.05-27.34.06-41q0-43.76,0-87.51c0-6.59.17-5.79,6.73-6.71,10.27-1.45,14.44,3,18.31,12.19,11.41,27.17,24.2,53.76,36.46,80.57q5.4,11.81,10.85,23.59c.38.83,1,1.58,1.93,3.13,3.59-7.7,6.9-14.7,10.12-21.76q17.31-37.93,34.56-75.9c2.83-6.2,5.6-12.43,8.5-18.59.53-1.1,1.57-2.74,2.44-2.77a140.69,140.69,0,0,1,16.43.13c.73.05,1.77,2.88,1.78,4.44.14,14.16.09,28.33.08,42.5,0,29-.1,58,.09,87,0,4.6-1.32,6.11-5.89,5.92-9.79-.42-9.24,1.72-9.24-9.51q0-47-.05-94v-5.72Z"/><path class="cls-1" d="M79.24,137.29c1.81-17.85,17.6-35.79,35.44-40.42,17.14-4.44,34.24-4,51,2.19,18.79,6.91,29,21,29.73,40.39,1.24,31.28.83,62.63,1.18,94,0,3-1.07,4.37-4.05,4.2a4.21,4.21,0,0,0-.5,0c-10.65.48-10.64.48-10.87-10,0-1.64-.2-3.27-.32-5.24-.95.22-1.68.17-2.12.51-18,13.88-38.73,18.46-61,17.82-9.48-.27-18.8-1.81-26.66-7.08C76.71,224,72,208.51,76.91,191.45c3.21-11.12,10.54-18.76,20.15-24.33,13.91-8.06,29.3-10.46,45.12-10.69,11.32-.17,22.65-.26,34-.18,3.76,0,5.62-1,5-5.13-.92-6.4-1.05-13-2.6-19.21-2.08-8.38-7.79-14.45-15.76-17.58-17.77-7-35.65-8.19-53,1.4A31.06,31.06,0,0,0,95.2,133.41c-1.07,3.2-2.56,4.14-5.67,3.93C86.25,137.11,82.94,137.29,79.24,137.29Zm102,34.19c-13.58,0-26.51-.1-39.45,0-10.87.11-21.54,1.74-31.66,5.86-10.42,4.26-18.14,10.93-19.63,23-1.7,13.75,5.41,22.82,20.48,24.55,22.67,2.61,43.79-1.6,61.8-16.49,3.4-2.81,7.51-6.74,8.08-10.63C182.11,189.34,181.26,180.57,181.26,171.48Z"/><path class="cls-1" d="M506.49,203.72c-3.28,9.37-9.57,15.62-16.08,21.44-25.29,22.65-64.81,20.27-87.74-4.83-15.75-17.25-22.73-37.74-20.25-60.58,3.21-29.56,18.11-52,46.76-62.23,21.48-7.67,42.3-3.59,59.94,11.34,6.23,5.28,11,12.34,16.27,18.67.67.8.74,2.09,1.08,3.13-8.24,3-15.53,1.26-21-4.68-23.15-25.3-61.3-21.38-79,8.12-14.65,24.38-11.76,55.71,6.95,75.48,20.16,21.29,50.72,22,70.58.34C490.83,202.49,497.67,202.82,506.49,203.72Z"/><path class="cls-1" d="M551.4,160.56c7.5,0,15-.16,22.49.07,3.82.12,4.8-1.37,4.76-5-.18-14.66-.12-29.33-.1-44,0-6,.07-5.69,7.71-6,5-.24,6.16,1.63,6.07,6.31-.28,14.16,0,28.33-.22,42.48-.08,4.73,1.39,6.4,6.25,6.31,14.32-.27,28.66.18,43-.21,5.82-.16,6,2.75,5.89,7-.2,6.57-.22,6.8-6.18,6.81-14.49,0-29,.11-43.48-.06-4.07,0-5.48,1.2-5.41,5.42.22,14.66-.07,29.33.13,44,.06,4.16-1.29,5.49-5.41,5.44-8.24-.11-8.28.09-8.28-7.92,0-13,0-26,0-39,0-7.89,0-7.92-7.71-7.94-13.82,0-27.65-.19-41.48.05-4.39.07-6.19-1.33-5.63-5.7a16.28,16.28,0,0,0,0-3.49c-.31-3.4,1-4.69,4.57-4.59,7.66.23,15.33.07,23,.07Z"/></g></g></svg>